<?xml version="1.0" standalone="no"?>
<!DOCTYPE svg PUBLIC "-//W3C//DTD SVG 20010904//EN"
 "http://www.w3.org/TR/2001/REC-SVG-20010904/DTD/svg10.dtd">
<svg version="1.0" xmlns="http://www.w3.org/2000/svg"
 width="1024.000000pt" height="1024.000000pt" viewBox="0 0 1024.000000 1024.000000"
 preserveAspectRatio="xMidYMid meet">

<g transform="translate(0.000000,1024.000000) scale(0.100000,-0.100000)"
fill="#000000" stroke="none">
<path d="M5088 8503 c-26 -10 -67 -32 -91 -49 -42 -30 -107 -115 -107 -141 0
-10 59 -13 310 -13 l310 0 -20 40 c-32 63 -86 117 -147 146 -72 36 -185 43
-255 17z"/>
<path d="M4824 8235 c-4 -8 -1 -22 6 -30 11 -13 65 -15 365 -15 300 0 354 2
365 15 7 8 10 22 6 30 -5 13 -54 15 -371 15 -317 0 -366 -2 -371 -15z"/>
<path d="M4883 8133 c-10 -26 56 -141 102 -178 44 -37 129 -75 165 -75 18 0
20 7 20 73 0 65 -3 76 -25 97 -17 16 -25 34 -25 56 0 40 -18 46 -142 43 -66
-1 -91 -5 -95 -16z"/>
<path d="M5277 8144 c-4 -4 -7 -22 -7 -40 0 -23 -7 -38 -25 -52 -23 -18 -25
-27 -25 -96 0 -88 2 -90 94 -56 72 27 139 88 170 155 44 91 44 91 -87 94 -62
1 -116 -1 -120 -5z"/>
<path d="M5510 8002 c0 -22 -101 -108 -160 -136 -58 -27 -75 -31 -155 -31 -82
0 -97 3 -157 33 -43 21 -83 51 -112 83 l-45 51 -41 -64 c-114 -177 -268 -536
-347 -807 -38 -132 -50 -161 -65 -161 -27 0 -23 25 24 183 l42 140 -40 34
c-71 60 -233 164 -327 208 -307 145 -539 120 -724 -80 -173 -187 -294 -521
-328 -910 l-6 -70 78 0 c43 0 94 -4 113 -8 l35 -8 59 91 c114 177 245 280 341
267 l45 -7 50 79 c61 95 73 107 89 87 10 -12 7 -23 -16 -58 -16 -24 -42 -65
-57 -91 l-28 -49 40 -86 c22 -48 65 -166 97 -262 78 -242 79 -245 97 -244 515
39 1993 37 2351 -2 56 -6 43 -29 126 231 34 105 80 229 102 277 l42 87 -57 92
c-54 88 -63 119 -34 119 12 0 99 -125 113 -162 6 -14 15 -16 55 -11 102 12
225 -82 345 -266 58 -89 61 -91 90 -84 17 5 67 8 113 8 l84 0 -7 80 c-9 109
-49 321 -80 429 -57 193 -147 366 -250 474 -245 260 -579 222 -1037 -118 -26
-19 -47 -40 -48 -45 0 -6 18 -71 40 -144 45 -149 49 -181 22 -181 -14 0 -26
29 -61 148 -81 279 -207 577 -333 788 -55 93 -78 121 -78 96z"/>
<path d="M3050 6414 c-65 -23 -134 -77 -169 -133 -17 -26 -31 -53 -31 -59 0
-9 81 -12 310 -12 171 0 310 2 310 5 0 3 -9 22 -19 43 -25 49 -95 114 -151
143 -60 30 -185 36 -250 13z"/>
<path d="M7125 6410 c-27 -11 -66 -33 -86 -50 -39 -32 -99 -115 -99 -137 0
-10 59 -13 310 -13 171 0 310 2 310 5 0 19 -47 92 -81 124 -63 62 -120 85
-219 88 -66 2 -96 -1 -135 -17z"/>
<path d="M4440 6159 c-359 -14 -605 -30 -632 -40 -35 -14 -55 -61 -40 -95 19
-41 46 -44 249 -29 428 32 656 39 1188 39 536 0 777 -8 1183 -40 106 -8 202
-12 213 -9 10 4 26 20 35 37 20 38 5 81 -34 97 -27 10 -230 23 -677 41 -273
11 -1193 11 -1485 -1z"/>
<path d="M2784 6145 c-4 -8 -4 -22 0 -30 5 -13 55 -15 370 -15 345 0 366 1
375 18 21 40 3 42 -376 42 -314 0 -364 -2 -369 -15z"/>
<path d="M6874 6145 c-4 -8 -4 -22 0 -30 5 -13 53 -15 373 -13 l368 3 0 25 0
25 -368 3 c-320 2 -368 0 -373 -13z"/>
<path d="M2840 6032 c0 -36 53 -123 101 -166 45 -41 137 -86 174 -86 12 0 15
16 15 78 0 71 -2 81 -25 102 -17 16 -25 34 -25 57 l0 33 -120 0 c-109 0 -120
-2 -120 -18z"/>
<path d="M3230 6015 c0 -25 -7 -43 -25 -59 -22 -21 -25 -31 -25 -100 0 -69 2
-76 20 -76 39 0 129 42 173 81 42 37 107 143 107 176 0 10 -27 13 -125 13
l-125 0 0 -35z"/>
<path d="M6935 6011 c22 -64 41 -94 87 -137 49 -47 106 -79 161 -89 l37 -7 0
80 c0 73 -2 84 -25 106 -16 16 -25 36 -25 56 l0 30 -125 0 -124 0 14 -39z"/>
<path d="M7324 6014 c0 -28 -7 -42 -27 -58 -25 -20 -27 -27 -27 -100 l0 -78
37 7 c52 10 114 41 161 81 38 32 102 140 102 171 0 10 -27 13 -123 13 l-123 0
0 -36z"/>
<path d="M4495 5979 c-215 -11 -415 -26 -421 -31 -2 -3 3 -47 12 -99 62 -363
251 -626 558 -774 190 -92 346 -120 625 -112 156 4 201 8 282 30 420 111 683
402 759 842 10 60 17 112 14 114 -6 7 -187 19 -449 30 -274 13 -1127 12 -1380
0z m305 -143 c71 -47 100 -148 66 -229 -43 -103 -191 -141 -282 -72 -79 60
-96 179 -37 253 66 83 170 103 253 48z m957 19 c72 -30 113 -93 113 -170 0
-60 -19 -103 -63 -142 -90 -79 -233 -49 -286 60 -46 95 -6 202 94 248 49 23
94 24 142 4z"/>
<path d="M3905 5941 l-70 -6 0 -75 c1 -63 6 -86 32 -142 40 -84 108 -154 192
-196 35 -18 70 -32 76 -32 8 0 0 31 -22 85 -32 81 -83 276 -83 322 0 36 -11
53 -34 51 -11 -1 -52 -4 -91 -7z"/>
<path d="M6375 5937 c-2 -7 -9 -48 -15 -92 -15 -96 -52 -231 -85 -302 -29 -64
-23 -66 73 -18 138 69 221 203 222 358 0 30 -5 49 -12 51 -7 3 -50 7 -96 10
-61 4 -84 2 -87 -7z"/>
<path d="M4300 5113 c-286 -309 -556 -794 -738 -1328 -57 -166 -122 -425 -122
-487 0 -131 126 -247 257 -236 79 7 105 30 107 95 1 49 -1 54 -27 64 -31 13
-97 85 -97 106 0 8 7 16 16 20 10 4 30 -10 59 -43 23 -27 46 -46 50 -42 4 4
20 76 36 162 37 199 122 537 204 814 74 247 79 262 99 262 26 0 23 -22 -21
-165 -155 -500 -289 -1102 -269 -1208 9 -49 56 -101 103 -115 103 -30 534 -67
947 -83 418 -15 970 8 1351 57 188 24 229 51 242 163 5 46 4 50 -33 84 l-39
35 -1 84 c-1 65 -10 109 -38 203 -71 230 -175 484 -302 737 -36 71 -64 137
-62 146 9 45 37 9 110 -138 190 -379 352 -830 340 -948 -4 -46 -1 -56 18 -77
46 -49 129 -19 160 55 14 35 43 37 48 4 4 -25 -51 -101 -83 -116 -30 -14 -31
-30 -4 -75 41 -66 136 -95 223 -68 93 29 162 104 180 194 14 76 -82 416 -194
681 -184 440 -493 941 -715 1162 l-77 76 -68 -52 c-119 -92 -275 -162 -447
-202 -104 -23 -404 -30 -528 -10 -208 32 -392 105 -534 212 -40 30 -74 54 -76
54 -2 0 -36 -35 -75 -77z m988 -664 c12 -5 22 -11 22 -13 0 -17 -305 -904
-315 -914 -9 -10 -21 -11 -58 -1 -38 9 -47 16 -47 33 0 22 281 860 301 897 11
21 37 20 97 -2z m-547 -236 c25 -58 38 -46 -173 -155 -87 -45 -158 -84 -158
-87 0 -4 71 -42 158 -85 211 -105 198 -94 173 -150 -11 -26 -27 -46 -35 -46
-9 0 -117 52 -241 116 l-226 116 3 52 3 51 225 117 c124 64 231 117 238 118 7
0 22 -21 33 -47z m994 -76 l220 -115 3 -50 3 -50 -223 -114 c-123 -63 -231
-118 -241 -121 -14 -5 -22 2 -37 36 -11 23 -20 48 -20 55 0 6 79 51 175 99 96
48 175 90 175 93 0 3 -73 43 -163 89 -89 46 -168 90 -176 97 -12 11 -12 19 4
59 15 39 21 46 39 41 11 -3 120 -57 241 -119z"/>
<path d="M7315 4592 c-189 -96 -210 -110 -210 -132 l0 -25 88 3 c96 3 95 5 51
-53 -13 -17 -36 -58 -51 -90 -24 -52 -27 -72 -26 -150 0 -104 18 -161 88 -291
25 -46 65 -121 89 -166 25 -46 59 -126 77 -178 30 -86 33 -107 33 -215 1 -97
-3 -133 -21 -190 -77 -245 -309 -428 -610 -480 -235 -41 -490 16 -675 152
l-48 35 0 -49 c0 -48 0 -49 54 -82 157 -95 323 -141 511 -141 274 0 494 86
665 259 141 143 201 289 202 486 1 183 -41 306 -207 600 -110 195 -112 340 -6
472 14 18 29 33 32 33 4 0 15 -35 24 -77 19 -86 28 -103 56 -103 13 0 21 11
28 38 78 300 110 436 105 443 -11 19 -44 5 -249 -99z"/>
<path d="M5870 2904 c-80 -7 -182 -13 -227 -13 l-83 -1 0 -185 0 -185 245 0
245 0 0 200 c0 184 -1 200 -17 199 -10 -1 -83 -8 -163 -15z"/>
<path d="M4350 2716 l0 -196 250 0 250 0 -2 183 -3 182 -120 6 c-66 3 -177 9
-247 14 l-128 7 0 -196z"/>
<path d="M4220 2316 l0 -153 68 -5 c46 -3 85 -14 125 -33 59 -29 147 -107 147
-130 0 -31 -24 -24 -71 20 -104 98 -231 125 -335 72 -60 -30 -118 -92 -144
-152 -24 -56 -43 -161 -36 -191 l6 -24 379 0 379 0 18 45 c9 25 20 45 24 45 4
0 15 -20 25 -45 l17 -46 61 3 62 3 3 373 2 372 -365 0 -365 0 0 -154z"/>
<path d="M5460 2096 c0 -368 0 -375 20 -381 12 -4 39 -4 61 0 36 6 43 12 60
52 22 51 33 49 50 -8 l12 -39 381 2 381 3 -1 72 c0 62 -5 82 -37 147 -57 114
-138 169 -252 169 -78 1 -157 -35 -220 -98 -45 -44 -75 -53 -75 -22 0 24 97
107 158 135 35 16 81 28 118 30 l62 4 7 73 c7 75 5 200 -3 223 -3 9 -85 12
-363 12 l-359 0 0 -374z"/>
</g>
</svg>
